<svg xmlns="http://www.w3.org/2000/svg" width="120" height="24" viewBox="0 0 120 24">
  <path d="M12 .297C5.37.297 0 5.67 0 12.297c0 5.439 3.438 10.06 8.206 11.713.6.112.82-.257.82-.575 0-.285-.01-1.04-.015-2.04-3.338.724-4.042-1.61-4.042-1.61-.546-1.387-1.333-1.756-1.333-1.756-1.089-.744.082-.73.082-.73 1.204.084 1.84 1.235 1.84 1.235 1.07 1.835 2.809 1.306 3.494.997.108-.763.418-1.285.76-1.58-2.665-.306-5.466-1.332-5.466-5.93 0-1.31.465-2.38 1.235-3.22-.125-.307-.535-1.533.116-3.192 0 0 1.01-.325 3.3 1.235.955-.267 1.97-.399 2.985-.405 1.014.006 2.03.138 2.985.405 2.285-1.56 3.294-1.235 3.294-1.235.653 1.659.243 2.885.118 3.192.77.84 1.23 1.91 1.23 3.22 0 4.61-2.805 5.62-5.475 5.92.43.36.815 1.095.815 2.22 0 1.605-.015 2.895-.015 3.29 0 .316.215.688.825.57C20.565 22.35 24 17.73 24 12.296 24 5.67 18.627.296 12 .296z"/>
  <text x="32" y="18" font-size="16" font-weight="bold">GitHub</text>
</svg>
